<svg height="511pt" viewBox="-107 0 511 511.984" width="511pt" xmlns="http://www.w3.org/2000/svg"><path d="m168.535156 119.992188v24h-40v-24zm0 0" fill="#e6e9ed"/><path d="m168.535156 111.992188v8h-40v-112h40zm0 0" fill="#ffce54"/><path d="m168.535156 159.992188v40.078124h-40v-56.078124h40zm0 0" fill="#fff"/><g fill="#ffce54"><path d="m128.535156 184.070312v16h-40v-112.078124h40zm0 0"/><path d="m48.535156 87.992188h40v112.078124h-24c-8.800781 0-16-7.191406-16-16zm0 0"/><path d="m48.535156 111.992188v24.078124h-40v-48.078124h40zm0 0"/></g><path d="m128.535156 79.910156v8.082032h-120v-24h120zm0 0" fill="#e6e9ed"/><path d="m288.453125 63.992188v24h-119.917969v-24zm0 0" fill="#e6e9ed"/><path d="m248.453125 111.992188v-24h40v48.078124h-40zm0 0" fill="#ffce54"/><path d="m208.375 87.992188h40.078125v96.078124c0 8.808594-7.191406 16-16 16h-24.078125zm0 0" fill="#ffce54"/><path d="m208.375 184.070312v16h-39.839844v-112.078124h39.839844zm0 0" fill="#ffce54"/><path d="m48.535156 159.992188v24.078124c0 8.808594 7.199219 16 16 16h167.917969c8.808594 0 16-7.191406 16-16v-48h40v104h-279.917969v-104h40zm0 0" fill="#e6e9ed"/><path d="m148.453125 279.992188c24.320313 0 44 19.679687 44 44 0 24.238281-19.679687 44-44 44-24.238281 0-44-19.761719-44-44 0-24.320313 19.761719-44 44-44zm0 0" fill="#e6e9ed"/><path d="m288.453125 240.070312v67.769532l-140 140-139.917969-139.917969v-67.84375h279.917969zm-96 83.921876c0-24.320313-19.679687-44-44-44-24.238281 0-44 19.679687-44 44 0 24.238281 19.761719 44 44 44 24.320313 0 44-19.761719 44-44zm0 0" fill="#ed5565"/><path d="m288.453125 363.832031v124.160157c0 8.808593-7.191406 16-16 16h-124v-.160157zm0 0" fill="#ed5565"/><path d="m288.453125 307.832031v56l-140 140-139.917969-139.921875v-56l139.917969 139.921875zm0 0" fill="#e6e9ed"/><path d="m272.4375 487.992188c0 8.808593-7.191406 16-16 16h16.015625c8.808594 0 16-7.191407 16-16v-124.160157l-16.015625 16.015625zm0 0" fill="#da4453"/><path d="m272.4375 363.832031v16.015625l16.015625-16.015625v-56l-16.015625 16.015625zm0 0" fill="#ccd1d9"/><path d="m272.4375 240.070312v83.777344l16.015625-16.015625v-67.761719zm0 0" fill="#da4453"/><path d="m148.453125 503.832031v.160157h-123.917969c-8.875 0-16-7.191407-16-16v-124.082032zm0 0" fill="#ed5565"/><path d="m272.4375 136.070312h16.015625v104h-16.015625zm0 0" fill="#ccd1d9"/><path d="m272.4375 87.992188h16.015625v48.078124h-16.015625zm0 0" fill="#f6bb42"/><path d="m272.4375 63.992188h16.015625v24h-16.015625zm0 0" fill="#ccd1d9"/><path d="m8.503906 495.984375c-4.425781 0-8-3.578125-8-8v-423.953125c0-4.421875 3.574219-8 8-8 4.421875 0 8 3.578125 8 8v423.953125c0 4.421875-3.578125 8-8 8zm0 0"/><path d="m24.503906 511.984375c-13.234375 0-24-10.769531-24-24 0-4.425781 3.574219-8 8-8 4.421875 0 8 3.574219 8 8 0 4.414063 3.582032 8 8 8 4.421875 0 8 3.574219 8 8 0 4.421875-3.578125 8-8 8zm0 0"/><path d="m288.445312 495.984375c-4.421874 0-8-3.578125-8-8v-423.945313c0-4.421874 3.578126-8 8-8 4.425782 0 8 3.578126 8 8v423.945313c0 4.421875-3.574218 8-8 8zm0 0"/><path d="m272.445312 511.984375c-4.421874 0-8-3.578125-8-8 0-4.425781 3.578126-8 8-8 4.417969 0 8-3.585937 8-8 0-4.425781 3.578126-8 8-8 4.425782 0 8 3.574219 8 8 0 13.230469-10.765624 24-24 24zm0 0"/><path d="m272.445312 511.984375h-247.941406c-4.425781 0-8-3.578125-8-8 0-4.425781 3.574219-8 8-8h247.941406c4.425782 0 8 3.574219 8 8 0 4.421875-3.574218 8-8 8zm0 0"/><path d="m288.445312 248.054688h-279.941406c-4.425781 0-8-3.574219-8-8 0-4.421876 3.574219-8 8-8h279.941406c4.425782 0 8 3.578124 8 8 0 4.425781-3.574218 8-8 8zm0 0"/><path d="m48.503906 144.046875h-40c-4.425781 0-8-3.574219-8-8 0-4.421875 3.574219-8 8-8h40c4.421875 0 8 3.578125 8 8 0 4.425781-3.578125 8-8 8zm0 0"/><path d="m232.445312 208.046875h-167.902343c-4.425781 0-8-3.574219-8-8 0-4.421875 3.574219-8 8-8h167.902343c4.425782 0 8 3.578125 8 8 0 4.425781-3.574218 8-8 8zm0 0"/><path d="m64.542969 208.046875c-13.234375 0-24-10.765625-24-24 0-4.421875 3.574219-8 8-8 4.421875 0 8 3.578125 8 8 0 4.417969 3.582031 8 8 8 4.421875 0 8 3.578125 8 8 0 4.425781-3.578125 8-8 8zm0 0"/><path d="m288.453125 144.046875h-40.007813c-4.421874 0-8-3.574219-8-8 0-4.421875 3.578126-8 8-8h40.007813c4.425781 0 8 3.578125 8 8 0 4.425781-3.574219 8-8 8zm0 0"/><path d="m232.445312 208.046875c-4.421874 0-8-3.574219-8-8 0-4.421875 3.578126-8 8-8 4.417969 0 8-3.582031 8-8 0-4.421875 3.578126-8 8-8 4.425782 0 8 3.578125 8 8 0 13.234375-10.765624 24-24 24zm0 0"/><path d="m248.445312 192.054688c-4.421874 0-8-3.582032-8-8l.039063-96.015626c0-4.421874 3.585937-8 8-8 4.425781 0 8 3.585938 8 8l-.039063 96.015626c0 4.425781-3.582031 8-8 8zm0 0"/><path d="m128.542969 72.03125h-120.039063c-4.425781 0-8-3.574219-8-8 0-4.421875 3.574219-8 8-8h120.039063c4.421875 0 8 3.578125 8 8 0 4.425781-3.578125 8-8 8zm0 0"/><path d="m48.542969 192.046875c-4.425781 0-8-3.574219-8-8v-96.007813c0-4.421874 3.574219-8 8-8 4.421875 0 8 3.578126 8 8v96.007813c0 4.425781-3.578125 8-8 8zm0 0"/><path d="m88.542969 208.0625c-4.425781 0-8-3.574219-8-8v-112.023438c0-4.421874 3.574219-8 8-8 4.421875 0 8 3.578126 8 8v112.023438c0 4.425781-3.578125 8-8 8zm0 0"/><path d="m128.542969 208.078125c-4.425781 0-8-3.574219-8-8v-192.078125c0-4.425781 3.574219-8 8-8 4.421875 0 8 3.574219 8 8v192.078125c0 4.417969-3.578125 8-8 8zm0 0"/><path d="m168.542969 208.078125c-4.425781 0-8-3.574219-8-8v-192.078125c0-4.425781 3.574219-8 8-8 4.421875 0 8 3.574219 8 8v192.078125c0 4.417969-3.578125 8-8 8zm0 0"/><path d="m208.375 208.0625c-4.425781 0-8-3.574219-8-8v-112.023438c0-4.421874 3.574219-8 8-8 4.421875 0 8 3.578126 8 8v112.023438c0 4.425781-3.578125 8-8 8zm0 0"/><path d="m128.542969 96.039062h-120.039063c-4.425781 0-8-3.574218-8-8 0-4.421874 3.574219-8 8-8h120.039063c4.421875 0 8 3.578126 8 8 0 4.425782-3.578125 8-8 8zm0 0"/><path d="m288.445312 72.039062h-119.941406c-4.425781 0-8-3.574218-8-8 0-4.421874 3.574219-8 8-8h119.941406c4.425782 0 8 3.578126 8 8 0 4.425782-3.574218 8-8 8zm0 0"/><path d="m288.445312 96.039062h-119.941406c-4.425781 0-8-3.574218-8-8 0-4.421874 3.574219-8 8-8h119.941406c4.425782 0 8 3.578126 8 8 0 4.425782-3.574218 8-8 8zm0 0"/><path d="m168.542969 16h-40c-4.425781 0-8-3.574219-8-8s3.574219-8 8-8h40c4.421875 0 8 3.574219 8 8s-3.578125 8-8 8zm0 0"/><path d="m168.542969 127.976562h-40c-4.425781 0-8-3.578124-8-8 0-4.425781 3.574219-8 8-8h40c4.421875 0 8 3.574219 8 8 0 4.421876-3.578125 8-8 8zm0 0"/><path d="m168.542969 152.039062h-40c-4.425781 0-8-3.574218-8-8 0-4.421874 3.574219-8 8-8h40c4.421875 0 8 3.578126 8 8 0 4.425782-3.578125 8-8 8zm0 0"/><path d="m16.503906 119.984375h-8c-4.425781 0-8-3.578125-8-8 0-4.425781 3.574219-8 8-8h8c4.421875 0 8 3.574219 8 8 0 4.421875-3.578125 8-8 8zm0 0"/><path d="m56.535156 119.984375h-8.042968c-4.421876 0-8-3.578125-8-8 0-4.425781 3.578124-8 8-8h8.042968c4.421875 0 8 3.574219 8 8 0 4.421875-3.578125 8-8 8zm0 0"/><path d="m56.535156 167.984375h-8.042968c-4.421876 0-8-3.578125-8-8 0-4.425781 3.578124-8 8-8h8.042968c4.421875 0 8 3.574219 8 8 0 4.421875-3.578125 8-8 8zm0 0"/><path d="m88.535156 144.046875h-8c-4.425781 0-8-3.574219-8-8 0-4.421875 3.574219-8 8-8h8c4.421875 0 8 3.578125 8 8 0 4.425781-3.578125 8-8 8zm0 0"/><path d="m88.535156 192.046875h-8c-4.425781 0-8-3.574219-8-8 0-4.421875 3.574219-8 8-8h8c4.421875 0 8 3.578125 8 8 0 4.425781-3.578125 8-8 8zm0 0"/><path d="m96.535156 119.984375h-8.042968c-4.421876 0-8-3.578125-8-8 0-4.425781 3.578124-8 8-8h8.042968c4.421875 0 8 3.574219 8 8 0 4.421875-3.578125 8-8 8zm0 0"/><path d="m96.535156 167.984375h-8.042968c-4.421876 0-8-3.578125-8-8 0-4.425781 3.578124-8 8-8h8.042968c4.421875 0 8 3.574219 8 8 0 4.421875-3.578125 8-8 8zm0 0"/><path d="m128.535156 144.046875h-8c-4.425781 0-8-3.574219-8-8 0-4.421875 3.574219-8 8-8h8c4.421875 0 8 3.578125 8 8 0 4.425781-3.578125 8-8 8zm0 0"/><path d="m128.535156 192.046875h-8c-4.425781 0-8-3.574219-8-8 0-4.421875 3.574219-8 8-8h8c4.421875 0 8 3.578125 8 8 0 4.425781-3.578125 8-8 8zm0 0"/><path d="m136.535156 39.9375h-8.042968c-4.421876 0-8-3.578125-8-8 0-4.425781 3.578124-8 8-8h8.042968c4.421875 0 8 3.574219 8 8 0 4.421875-3.578125 8-8 8zm0 0"/><path d="m136.535156 87.9375h-8.042968c-4.421876 0-8-3.578125-8-8 0-4.425781 3.578124-8 8-8h8.042968c4.421875 0 8 3.574219 8 8 0 4.421875-3.578125 8-8 8zm0 0"/><path d="m168.535156 64h-8c-4.425781 0-8-3.574219-8-8s3.574219-8 8-8h8c4.421875 0 8 3.574219 8 8s-3.578125 8-8 8zm0 0"/><path d="m168.535156 112h-8c-4.425781 0-8-3.574219-8-8s3.574219-8 8-8h8c4.421875 0 8 3.574219 8 8s-3.578125 8-8 8zm0 0"/><path d="m176.535156 119.984375h-8.042968c-4.421876 0-8-3.578125-8-8 0-4.425781 3.578124-8 8-8h8.042968c4.421875 0 8 3.574219 8 8 0 4.421875-3.578125 8-8 8zm0 0"/><path d="m176.535156 167.984375h-8.042968c-4.421876 0-8-3.578125-8-8 0-4.425781 3.578124-8 8-8h8.042968c4.421875 0 8 3.574219 8 8 0 4.421875-3.578125 8-8 8zm0 0"/><path d="m208.535156 144.046875h-8c-4.425781 0-8-3.574219-8-8 0-4.421875 3.574219-8 8-8h8c4.421875 0 8 3.578125 8 8 0 4.425781-3.578125 8-8 8zm0 0"/><path d="m208.535156 192.046875h-8c-4.425781 0-8-3.574219-8-8 0-4.421875 3.574219-8 8-8h8c4.421875 0 8 3.578125 8 8 0 4.425781-3.578125 8-8 8zm0 0"/><path d="m216.535156 119.984375h-8.042968c-4.421876 0-8-3.578125-8-8 0-4.425781 3.578124-8 8-8h8.042968c4.421875 0 8 3.574219 8 8 0 4.421875-3.578125 8-8 8zm0 0"/><path d="m216.535156 167.984375h-8.042968c-4.421876 0-8-3.578125-8-8 0-4.425781 3.578124-8 8-8h8.042968c4.421875 0 8 3.574219 8 8 0 4.421875-3.578125 8-8 8zm0 0"/><path d="m248.535156 144.046875h-8c-4.425781 0-8-3.574219-8-8 0-4.421875 3.574219-8 8-8h8c4.421875 0 8 3.578125 8 8 0 4.425781-3.578125 8-8 8zm0 0"/><path d="m248.535156 192.046875h-8c-4.425781 0-8-3.574219-8-8 0-4.421875 3.574219-8 8-8h8c4.421875 0 8 3.578125 8 8 0 4.425781-3.578125 8-8 8zm0 0"/><path d="m256.492188 119.984375h-8.039063c-4.421875 0-8-3.578125-8-8 0-4.425781 3.578125-8 8-8h8.039063c4.425781 0 8 3.574219 8 8 0 4.421875-3.574219 8-8 8zm0 0"/><path d="m148.492188 455.824219c-2.046876 0-4.09375-.785157-5.652344-2.34375l-140-140c-3.128906-3.128907-3.128906-8.183594 0-11.3125 3.125-3.128907 8.183594-3.128907 11.308594 0l140 140c3.128906 3.128906 3.128906 8.183593 0 11.3125-1.558594 1.566406-3.605469 2.34375-5.65625 2.34375zm0 0"/><path d="m148.492188 455.824219c-2.046876 0-4.09375-.785157-5.652344-2.34375-3.128906-3.128907-3.128906-8.183594 0-11.3125l140-140c3.125-3.128907 8.183594-3.128907 11.308594 0 3.128906 3.128906 3.128906 8.183593 0 11.3125l-140 140c-1.558594 1.566406-3.605469 2.34375-5.65625 2.34375zm0 0"/><path d="m148.492188 511.839844c-2.046876 0-4.09375-.785156-5.652344-2.34375l-140-140c-3.128906-3.128906-3.128906-8.183594 0-11.3125 3.125-3.128906 8.183594-3.128906 11.308594 0l140 140c3.128906 3.128906 3.128906 8.183594 0 11.3125-1.558594 1.566406-3.605469 2.34375-5.65625 2.34375zm0 0"/><path d="m148.492188 511.839844c-2.046876 0-4.09375-.785156-5.652344-2.34375-3.128906-3.128906-3.128906-8.183594 0-11.3125l140-140c3.125-3.128906 8.183594-3.128906 11.308594 0 3.128906 3.128906 3.128906 8.183594 0 11.3125l-140 140c-1.558594 1.566406-3.605469 2.34375-5.65625 2.34375zm0 0"/><path d="m148.492188 375.976562c-28.671876 0-52-23.328124-52-52 0-28.671874 23.328124-52 52-52 28.671874 0 52 23.328126 52 52 0 28.671876-23.328126 52-52 52zm0-88c-19.847657 0-36 16.152344-36 36 0 19.847657 16.152343 36 36 36 19.851562 0 36-16.152343 36-36 0-19.847656-16.148438-36-36-36zm0 0"/></svg>